<?xml version="1.0" encoding="utf-8"?>
<!-- Generator: Adobe Illustrator 19.1.1, SVG Export Plug-In . SVG Version: 6.00 Build 0)  -->
<svg version="1.1" id="Layer_1" xmlns="http://www.w3.org/2000/svg" xmlns:xlink="http://www.w3.org/1999/xlink" x="0px" y="0px"
	 viewBox="0 0 696 124.8" style="enable-background:new 0 0 696 124.8;" xml:space="preserve">
<style type="text/css">
	.st0{fill-rule:evenodd;clip-rule:evenodd;fill:#063379;}
	.st1{fill:#EB0036;}
</style>
<g>
	<path class="st0" d="M107.3,0c0,0,0.1,0,0.1,0c1.2,20.3,2.7,40.4,4,60.7c0,0.4-0.5,0-0.5,0c-1.2-0.5-2.6-1-4.2-0.6
		c-1.4,0.3-2.3,1.6-3.4,1.9c-2.9,0.7-5.1-0.7-7.5-1.4C99.6,40.4,103.5,20.3,107.3,0z"/>
	<path class="st0" d="M0,61.5c2.6,0.4,61.1,16,61.5,16c1,0,2.5-1.4,3.5-1.9c1.3-0.7,3.3-1.5,5.2-1c1,0.3,2.3,1,3.4,1.6
		c1.6,0.8,2.6,2.1,4.3,1.4c0.1-0.8-0.8-1-1.3-1.3c-0.5-0.3-1-0.6-1.6-1C74,74.8,72.2,74,72.1,73c-0.2-1,1-2.4,1.7-2.8
		c1.1-0.7,2.9-0.8,4.3-0.7c2.6,0.2,4,2.1,5.9,2.5c0-1.2-0.9-2-1.3-2.9c-0.4-1-0.7-2-1-3.3c2-1.4,3.4,0.6,4.6,1.6
		c0.6,0.5,1.3,1,1.9,1.6c0.6,0.5,1.2,1.6,2.2,1.1c0.2-0.7-0.1-1.2-0.1-1.9c-0.1-1.2-0.2-2.8,0.1-3.7c0.5-1.4,3.1-3.1,5.3-3
		c2.9,0.2,5.8,3.7,5.8,6.1c0,2.5-1.8,3.3-4.3,3.6c0.3,2.2-0.1,4.3,0.2,6.3c0.2,1.4,1.6,2.8,0.7,4.2c-1.8,0.6-3.1,1.4-4.9,1.6
		c-0.6,0.1-1.3-0.1-1.9,0c-1.6,0.2-3.4,1-4.8,1.8c-2.9,1.6-5.5,3.1-8.4,4.7c-1.4,0.8-3.2,1.7-4.7,1.8c-2.6,0.3-5.2-0.9-6.5-2.3
		c-1.5-1.5-2.3-3.9-4.7-4.5c-1.3,2,0.8,3,2,3.9c2.8,1.9,5.8,4.2,7.5,6.5c-0.7,0.9-1.7,1.6-3.4,1.6c-0.8,1.1-0.9,2.5-2,3.3
		c-1.2,0.8-2.9,0.5-4.5,1.1c0,1.9,3.8,0.5,4.3,1.9c-0.1,1.3-1.1,1.8-1.6,2.8c0,1,1,1.7,1.2,2.7c0.2,1-0.3,1.5-0.2,2.4
		c0.3,0.1,0.5,0.2,1,0.1c0.7-0.5,0.2-2.6,0.4-3.7c0.3-1.7,1.4-2.8,3-3.5c1.2-0.6,2.2-1.2,3.9-0.8c0.7,0.1,1.3,0.6,2,0.7
		c0.8,0.1,3.3-0.1,4.2-0.5c1-0.4,1.7-1.8,2.4-2.3c1.2-0.8,2.7-1.2,4.5-1.3c1.6-0.1,3.4,0.3,5.2,0.1c1.4-0.1,5.9-1.3,6.3-2.7
		c0.2-0.8-0.6-1.5-0.7-2.5c-0.2-1.3,0.1-2.1,0.5-3.3c3-1.9,6,0.3,8.7,1.6c1.6,0.8,2.8,1.6,4,2.9c0.7,0.8,1.2,1.8,1.9,2.3
		c5.2-1.1,8.6,2.4,11.4,4.8c0.1,6.8-0.2,13.2-0.1,20c-1.1-0.4-1.7-1-3.1-0.7c-1.3,0.3-1.9,1.6-2.9,1.7c-1.2,0.1-2.2-0.4-2.3-1.6
		c-0.1-1.8,1.9-1.7,2.5-3c-1.3,0.1-2.3,0.6-3.4,1.1c-1,0.4-1.9,0.9-3,1.3c-1-0.2-1.1-1.2-2.2-1.1c-1.6,0.2-0.9,3.1-2.4,3.7
		c-1.7-0.2-3.8,0.1-4.7-0.8c-0.1-1.3-0.3-2.3-0.1-3.4c0.1-1,0.6-1.8,0.5-2.8c-0.2-1-1.1-1.7-1.1-2.8c0-0.8,0.5-1.4,1.3-1.9
		c1.4-1,3.8-2.4,6.3-2.4c1.1,0,2.4,0.5,3.4,0.4c0.6-0.1,1.1-0.5,1.7-0.7c1.2-0.5,2.7-0.6,3.9-1.1c1.1,0.3,2.5,0.8,3.9,0.5
		c0.2-2.5-3-2.8-5.3-2.9c-0.7,0-1.6,0-2.3,0c-0.6-0.4-0.9-1-1.3-1.6c-2.2,0.2-3.1-1-4.3-2c-1.4-1.2-2.7-2.1-4.1-3.4
		c-0.7-0.6-1.2-1.5-2.4-1.3c-0.4,0.1-0.4,0.6-0.5,0.8c-0.3,0.7-0.9,1.5-1.4,2.2c-0.7,1-1.5,2.4-2.5,3c-2,1.2-4.4,1.1-7.5,1.4
		c-1.2,0.1-6.5,0.8-6.7,2.2c-0.1,0.9,1.4,1.7,2.5,2.2c1.1,0.4,2.4,0.8,3.6,1c2,0.3,4.1,0,5.4,1c1.7,1.2,2.6,5.7,1.1,7.8
		c-0.8-0.2-1.5,0-2-0.1c-1-0.3-1.2-1.4-2.3-1.4c-0.5,0.5-0.7,1.2-1.2,1.7c-0.5,0.4-1.1,0.7-1.6,1.1c-1.2,0.1-2.2-0.1-2.9-0.5
		c-0.2-0.9-0.1-2.2-0.4-3c-1.4-0.2-1.1,1.1-1.1,2.3c-1.6,0.3-2.7-1.2-4-1.4c-0.9-0.2-1.9,0-2.8,0.6c-0.6,1.4,0.3,3,0.6,4.2
		c-0.6,1.4-2.6,1.9-4.2,1.8c-1.5-0.1-2.5-1.4-2.2-2.9c0.3-1.7,2.6-2.4,2.4-4.1c-0.9-0.8-1.4,0.2-1.9,0.7c-0.8,0.8-1.9,1.8-3.1,2.3
		c-2.1-0.5-3.9-1.7-4.1-4c-0.1-1.4,0.3-3,0.1-4.8c-0.9-0.2-1.5,0.7-2.2,1.1c-3.7,1.9-5.9-1.4-6-5.2c-18.8-2.2-37.5-4.6-56.4-6.7
		c1.1-0.5,37.7-4.3,54.6-6.1c-0.1-2.9,0.6-5,1.2-7.2C38.1,78.8,19,70.1,0,61.5z M65.4,79.7c1.1,0.6,2.2,1.7,3.9,1.3
		C69.6,79.1,66.7,79.3,65.4,79.7z"/>
	<path class="st0" d="M112.2,81.7c-1.9,0.6-3.3-0.1-4.7-0.7c-1.8-0.8-2.2-0.9-2.8-3c-0.3-1-0.7-1.9-0.8-3c-0.2-1.8,0.4-3.8,0.4-5.5
		c0-1.1-0.4-2.2-0.7-3c-0.4-1-1.1-1.6-1.6-2.5c0.4-0.6,0.8-1.3,1.6-1.4c1.3-0.3,3.4,0.1,4.6,0.6c1.2,0.5,2.6,1.4,2.8,2.7
		c0.3,2.4-0.2,5.2,0.1,7.8C111.3,76.5,112.8,79.2,112.2,81.7z"/>
	<path class="st0" d="M74.6,61c1.4,1.5,2.8,2.9,4.2,4.5c0.4,0.5,1.1,0.9,1.2,1.7c-1.7,1.1-3.9,1.4-6.4,1.8c-0.7,0.1-1.7,0-2.2,0.2
		c-1.6,0.6-1.8,3.3-2.4,4.9c-11.4-18-22.6-36.3-34-54.4"/>
	<path class="st0" d="M119.4,86c-2.8,0.2-4.9-1.8-6.7-3.1c-0.1-3.1,1.8-5,1.6-8.3c-0.2-2.1-1.2-4.6-1.9-6.5
		c-0.4-1.2-1.4-2.3-1.1-4.1c0.4-2.6,3.1-1.7,5.3-1c1.1,0.4,2.3,1.1,3.3,1.3c1.4,0.3,2.3-0.3,3.9,0.1c1,6.8,0.4,15.2,0.6,22.9
		c-0.8,0-1.5-0.1-2.2-0.2c-1.6-2.5,0.2-6.4,0-9.8c-0.8,0.1-0.8,1.2-1,1.8c-0.5,2-0.9,4.5-1.7,6.4C119.8,85.7,119.5,85.6,119.4,86z"
		/>
</g>
<g>
	<path class="st1" d="M136.4,55.5h21.1v51.6h33v16.8h-54.1V55.5z"/>
	<path class="st1" d="M199,72.6h15.9v51.3H199V72.6z"/>
	<path class="st1" d="M226.3,72.6H256c4.9,0,8.7,1.2,11.4,3.7c2.6,2.4,4,5.5,4,9.1c0,3-0.9,5.6-2.8,7.8c-1.3,1.4-3.1,2.6-5.5,3.4
		c3.7,0.9,6.4,2.4,8.1,4.6c1.7,2.2,2.6,4.9,2.6,8.1c0,2.7-0.6,5.1-1.9,7.2c-1.2,2.1-2.9,3.8-5.1,5c-1.3,0.8-3.3,1.3-6,1.7
		c-3.6,0.5-5.9,0.7-7.1,0.7h-27.4V72.6z M242.3,92.8h6.9c2.5,0,4.2-0.4,5.2-1.3c1-0.9,1.5-2.1,1.5-3.7c0-1.5-0.5-2.7-1.5-3.5
		c-1-0.8-2.7-1.3-5.1-1.3h-7V92.8z M242.3,112.9h8.1c2.7,0,4.7-0.5,5.8-1.5c1.1-1,1.7-2.3,1.7-3.9c0-1.5-0.6-2.7-1.7-3.7
		c-1.1-0.9-3.1-1.4-5.8-1.4h-8V112.9z"/>
	<path class="st1" d="M282,72.6h42.5v11h-26.6v8.2h24.7v10.5h-24.7v10.1h27.4v11.6H282V72.6z"/>
	<path class="st1" d="M334,123.9V72.6h26.4c4.9,0,8.6,0.4,11.2,1.3c2.6,0.8,4.7,2.4,6.3,4.7c1.6,2.3,2.4,5,2.4,8.3
		c0,2.8-0.6,5.3-1.8,7.4c-1.2,2.1-2.9,3.7-5,5c-1.4,0.8-3.2,1.5-5.6,2c1.9,0.6,3.3,1.3,4.1,1.9c0.6,0.4,1.4,1.3,2.5,2.7
		s1.8,2.4,2.2,3.2l7.7,14.9h-17.9l-8.5-15.7c-1.1-2-2-3.3-2.9-4c-1.1-0.8-2.4-1.2-3.9-1.2h-1.4v20.8H334z M349.9,93.4h6.7
		c0.7,0,2.1-0.2,4.2-0.7c1-0.2,1.9-0.7,2.6-1.6c0.7-0.9,1-1.9,1-3c0-1.7-0.5-2.9-1.6-3.8c-1.1-0.9-3-1.3-5.9-1.3h-7V93.4z"/>
	<path class="st1" d="M385.3,72.6h48.2v12.7h-16.2v38.6h-15.9V85.3h-16.2V72.6z"/>
	<path class="st1" d="M435.5,72.6h17.6l10.3,17.3l10.4-17.3h17.5l-19.9,29.8v21.5h-15.9v-21.5L435.5,72.6z"/>
	<path class="st1" d="M517.2,55.5h64.2v16.9h-21.6v51.5h-21.1V72.4h-21.6V55.5z"/>
	<path class="st1" d="M620.8,115.5h-18l-2.5,8.5h-16.2l19.3-51.3h17.3l19.3,51.3h-16.6L620.8,115.5z M617.5,104.4l-5.7-18.4
		l-5.6,18.4H617.5z"/>
	<path class="st1" d="M641.5,72.6H659l9.1,15.8l8.8-15.8h17.3l-16,24.8l17.5,26.5h-17.8l-10.1-16.5l-10.1,16.5h-17.7l17.7-26.7
		L641.5,72.6z"/>
</g>
<g>
</g>
<g>
</g>
<g>
</g>
<g>
</g>
<g>
</g>
<g>
</g>
</svg>
